<mxfile host="app.diagrams.net" agent="Mozilla/5.0 (Macintosh; Intel Mac OS X 10.15; rv:135.0) Gecko/20100101 Firefox/135.0" version="26.0.16">
  <diagram id="C5RBs43oDa-KdzZeNtuy" name="Page-1">
    <mxGraphModel dx="785" dy="449" grid="1" gridSize="10" guides="1" tooltips="1" connect="1" arrows="1" fold="1" page="1" pageScale="1" pageWidth="827" pageHeight="1169" math="0" shadow="0">
      <root>
        <mxCell id="WIyWlLk6GJQsqaUBKTNV-0" />
        <mxCell id="WIyWlLk6GJQsqaUBKTNV-1" parent="WIyWlLk6GJQsqaUBKTNV-0" />
        <mxCell id="WIyWlLk6GJQsqaUBKTNV-2" value="" style="rounded=0;html=1;jettySize=auto;orthogonalLoop=1;fontSize=11;endArrow=block;endFill=0;endSize=8;strokeWidth=1;shadow=0;labelBackgroundColor=none;edgeStyle=orthogonalEdgeStyle;entryX=0;entryY=0.5;entryDx=0;entryDy=0;" parent="WIyWlLk6GJQsqaUBKTNV-1" source="WIyWlLk6GJQsqaUBKTNV-3" target="WIyWlLk6GJQsqaUBKTNV-7" edge="1">
          <mxGeometry relative="1" as="geometry">
            <mxPoint x="220" y="170" as="targetPoint" />
          </mxGeometry>
        </mxCell>
        <mxCell id="WIyWlLk6GJQsqaUBKTNV-3" value="&lt;b&gt;User Input ( .pdf , .txt )&lt;/b&gt;" style="rounded=1;whiteSpace=wrap;html=1;fontSize=12;glass=0;strokeWidth=1;shadow=0;" parent="WIyWlLk6GJQsqaUBKTNV-1" vertex="1">
          <mxGeometry x="20" y="110" width="140" height="40" as="geometry" />
        </mxCell>
        <mxCell id="WIyWlLk6GJQsqaUBKTNV-7" value="&lt;b&gt;Text preprocessing &lt;/b&gt;" style="rounded=1;whiteSpace=wrap;html=1;fontSize=12;glass=0;strokeWidth=1;shadow=0;" parent="WIyWlLk6GJQsqaUBKTNV-1" vertex="1">
          <mxGeometry x="250" y="110" width="120" height="40" as="geometry" />
        </mxCell>
        <mxCell id="3ZDkNVYUbD9cLQH44O15-0" value="" style="rounded=0;html=1;jettySize=auto;orthogonalLoop=1;fontSize=11;endArrow=block;endFill=0;endSize=8;strokeWidth=1;shadow=0;labelBackgroundColor=none;edgeStyle=orthogonalEdgeStyle;entryX=0;entryY=0.5;entryDx=0;entryDy=0;" edge="1" parent="WIyWlLk6GJQsqaUBKTNV-1" target="3ZDkNVYUbD9cLQH44O15-1">
          <mxGeometry relative="1" as="geometry">
            <mxPoint x="370" y="130" as="sourcePoint" />
            <mxPoint x="430" y="170" as="targetPoint" />
          </mxGeometry>
        </mxCell>
        <mxCell id="3ZDkNVYUbD9cLQH44O15-6" value="" style="edgeStyle=orthogonalEdgeStyle;rounded=0;orthogonalLoop=1;jettySize=auto;html=1;entryX=0.5;entryY=0;entryDx=0;entryDy=0;" edge="1" parent="WIyWlLk6GJQsqaUBKTNV-1" source="3ZDkNVYUbD9cLQH44O15-1">
          <mxGeometry relative="1" as="geometry">
            <mxPoint x="530" y="230" as="targetPoint" />
          </mxGeometry>
        </mxCell>
        <mxCell id="3ZDkNVYUbD9cLQH44O15-1" value="&lt;div&gt;&lt;strong data-end=&quot;862&quot; data-start=&quot;823&quot;&gt;Summarization of Input Document&lt;br&gt;&lt;/strong&gt;&lt;/div&gt;&lt;div&gt;&lt;br&gt;&lt;/div&gt;&lt;div&gt;&lt;strong&gt;Using BART&lt;/strong&gt;&lt;strong data-end=&quot;862&quot; data-start=&quot;823&quot;&gt;&lt;/strong&gt;&lt;/div&gt;" style="rounded=1;whiteSpace=wrap;html=1;fontSize=12;glass=0;strokeWidth=1;shadow=0;" vertex="1" parent="WIyWlLk6GJQsqaUBKTNV-1">
          <mxGeometry x="470" y="80" width="120" height="100" as="geometry" />
        </mxCell>
        <mxCell id="3ZDkNVYUbD9cLQH44O15-8" value="" style="edgeStyle=orthogonalEdgeStyle;rounded=0;orthogonalLoop=1;jettySize=auto;html=1;exitX=0.5;exitY=1;exitDx=0;exitDy=0;" edge="1" parent="WIyWlLk6GJQsqaUBKTNV-1" source="3ZDkNVYUbD9cLQH44O15-11" target="3ZDkNVYUbD9cLQH44O15-7">
          <mxGeometry relative="1" as="geometry">
            <mxPoint x="530" y="270" as="sourcePoint" />
          </mxGeometry>
        </mxCell>
        <mxCell id="3ZDkNVYUbD9cLQH44O15-10" value="" style="edgeStyle=orthogonalEdgeStyle;rounded=0;orthogonalLoop=1;jettySize=auto;html=1;" edge="1" parent="WIyWlLk6GJQsqaUBKTNV-1" source="3ZDkNVYUbD9cLQH44O15-7" target="3ZDkNVYUbD9cLQH44O15-9">
          <mxGeometry relative="1" as="geometry" />
        </mxCell>
        <mxCell id="3ZDkNVYUbD9cLQH44O15-7" value="&lt;div&gt;&lt;strong data-end=&quot;1978&quot; data-start=&quot;1926&quot;&gt;Argument Mining &amp;amp; Legal Reasoning Extraction&lt;/strong&gt;&lt;/div&gt;&lt;div&gt;&lt;strong data-end=&quot;1978&quot; data-start=&quot;1926&quot;&gt;&lt;br&gt;&lt;/strong&gt;&lt;/div&gt;&lt;div&gt;Using&amp;nbsp;&lt;/div&gt;&lt;div&gt;RoBERTa&lt;/div&gt;" style="whiteSpace=wrap;html=1;rounded=1;glass=0;strokeWidth=1;shadow=0;" vertex="1" parent="WIyWlLk6GJQsqaUBKTNV-1">
          <mxGeometry x="470" y="380" width="120" height="100" as="geometry" />
        </mxCell>
        <mxCell id="3ZDkNVYUbD9cLQH44O15-9" value="&lt;div&gt;&lt;b&gt;Solution Recommendation (Generating Legal Advice)&lt;br&gt;&lt;/b&gt;&lt;/div&gt;&lt;div&gt;&lt;b&gt;&lt;br&gt;&lt;/b&gt;&lt;/div&gt;&lt;div&gt;Using Retrieval-Augmented Generation (RAG) using GPT-4 or fine-tuned LegalBERT&lt;/div&gt;" style="whiteSpace=wrap;html=1;rounded=1;glass=0;strokeWidth=1;shadow=0;" vertex="1" parent="WIyWlLk6GJQsqaUBKTNV-1">
          <mxGeometry x="110" y="367.5" width="190" height="125" as="geometry" />
        </mxCell>
        <mxCell id="3ZDkNVYUbD9cLQH44O15-11" value="&lt;div&gt;&lt;b&gt;Legal Case Retrieval&lt;span data-end=&quot;862&quot; data-start=&quot;823&quot;&gt;&lt;br&gt;&lt;/span&gt;&lt;/b&gt;&lt;/div&gt;&lt;div&gt;&lt;br&gt;&lt;/div&gt;&lt;div&gt;&lt;strong&gt;Using LEGALBERT&lt;/strong&gt;&lt;/div&gt;" style="rounded=1;whiteSpace=wrap;html=1;fontSize=12;glass=0;strokeWidth=1;shadow=0;" vertex="1" parent="WIyWlLk6GJQsqaUBKTNV-1">
          <mxGeometry x="470" y="230" width="120" height="100" as="geometry" />
        </mxCell>
      </root>
    </mxGraphModel>
  </diagram>
</mxfile>
